<svg height="512pt" viewBox="0 0 512 512" width="512pt" xmlns="http://www.w3.org/2000/svg"><path d="m512 256c0 141.386719-114.613281 256-256 256s-256-114.613281-256-256 114.613281-256 256-256 256 114.613281 256 256zm0 0" fill="#ffbc00"/><path d="m511.453125 272.519531-39.261719-39.265625-36.890625-2.703125-42.027343-42.027343-40.5625 40.589843-68.75-68.746093-223.960938 43.5625 82.847656 82.847656-85.386718 53.019531 170.6875 170.691406c9.152343.988281 18.441406 1.511719 27.851562 1.511719 135.835938 0 246.9375-105.796875 255.453125-239.480469zm0 0" fill="#ff9100"/><path d="m384.953125 199.183594h38.730469c7.285156 0 14.304687 2.730468 19.675781 7.652344l28.832031 26.417968h-100.105468zm0 0" fill="#555a66"/><path d="m404.976562 211.445312c0-21.523437-29.605468-38.96875-51.125-38.96875-16.121093 0-36.367187 12.464844-45.519531 27.761719l-16.515625-29.144531c-14.488281-25.5625-46.046875-35.898438-72.84375-23.855469l-158.972656 56.691407s87.402344 40.222656 149.8125 50.054687c-6.070312 5.230469-11.953125 10.578125-17.066406 15.851563h-135.285156v69.960937s84.996093-17.871094 128.734374-27.75c30.839844 15.207031 121.925782 4.617187 141.621094-15.078125 12.261719-12.257812 26.171875-30.007812 31.769532-46.945312 20.679687-2.660157 45.390624-18.914063 45.390624-38.578126zm0 0" fill="#414952"/><path d="m353.851562 172.476562c-16.121093 0-36.367187 12.464844-45.523437 27.761719l-16.515625-29.144531c-8.027344-14.167969-21.300781-23.644531-36.097656-27.238281v174.292969c31.023437-2.824219 61.640625-10.714844 72.101562-21.179688 12.261719-12.257812 26.171875-30.003906 31.769532-46.941406 20.683593-2.664063 45.390624-18.917969 45.390624-38.582032 0-21.523437-29.605468-38.96875-51.125-38.96875zm0 0" fill="#2b2f33"/></svg>